<svg width="160" height="29" viewBox="0 0 160 29" fill="none" xmlns="http://www.w3.org/2000/svg">
<path fill-rule="evenodd" clip-rule="evenodd" d="M8.05607 17.9236H12.5048L10.3187 9.14112L8.05607 17.9236ZM0.0171574 28.3663L7.67881 0.7229H13.0784L20.7969 28.4285H15.2906L13.7918 22.6949H6.76868L5.30932 28.4285H0L0.0171574 28.3663ZM28.6682 5.73001H27.2581V23.5392H28.6682C30.5584 23.5392 32.0431 22.8457 33.0808 21.4775C34.2027 19.9981 34.7717 17.7618 34.7717 14.831V14.4383C34.7717 11.5072 34.2027 9.27112 33.0808 7.79176C32.0431 6.42355 30.5584 5.73001 28.6682 5.73001ZM21.8743 0.840714H28.7471C35.9894 0.840714 40.3133 5.87983 40.3133 14.3203V14.9488C40.3133 23.3894 35.9894 28.4285 28.7471 28.4285H21.8743V0.840714ZM49.1817 5.76908H47.2589V14.3499H49.3C52.0259 14.3499 53.5891 12.7788 53.5891 10.0399C53.5891 7.20602 52.1063 5.76908 49.1817 5.76908ZM58.973 9.76496V10.0006C58.973 13.512 57.519 16.1933 54.7671 17.7575L59.6313 28.4285H53.6459L49.5045 19.1212H47.2589V28.4285H41.875V0.840714H49.7339C52.6628 0.840714 55.0617 1.6876 56.671 3.28988C58.1771 4.78926 58.973 7.02852 58.973 9.76496ZM74.4103 17.04H66.3643V23.4607H75.6332V28.4285H61.0201V0.840714H75.4752V5.80836H66.3643V12.0722H74.4103V17.04ZM90.4473 15.6906L82.6778 0.840714H77.7077V28.4285H82.9732V12.9505L91.0445 28.402L91.0583 28.4285H95.7128V0.840714H90.4473V15.6906ZM104.862 17.9236H109.311L107.125 9.14112L104.862 17.9236ZM96.8231 28.3663L104.485 0.7229H109.884L117.603 28.4285H112.096L110.598 22.6949H103.575L102.115 28.4285H96.806L96.8231 28.3663ZM118.68 0.840714H124.064V23.4214H131.952V28.4285H118.68V0.840714ZM133.483 28.4285H138.827V0.840714H133.483V28.4285ZM154.335 15.6906V0.840714H159.601V28.4285H154.946L154.933 28.402L146.861 12.9505V28.4285H141.596V0.840714H146.566L146.58 0.867026L154.335 15.6906Z" fill="white"/>
</svg>
